<svg xmlns="http://www.w3.org/2000/svg" xmlns:svg="http://www.w3.org/2000/svg" id="svg8" width="22" height="22" version="1.1" viewBox="0 0 5.821 5.821"><metadata id="metadata5"/><g id="layer1"><path id="rect1153" style="fill:#000;fill-opacity:1;stroke-width:.387568;stroke-linecap:square;stroke-linejoin:round;paint-order:fill markers stroke" d="m 1.4746246,2.4691959 c -0.3218669,0 -0.58098708,0.2591201 -0.58098708,0.580987 v 2.1787013 c 0,0.3218668 0.25912018,0.580987 0.58098708,0.580987 h 2.904935 c 0.3218668,0 0.580987,-0.2591202 0.580987,-0.580987 V 3.0501829 c 0,-0.3218669 -0.2591202,-0.580987 -0.580987,-0.580987 z M 2.9202835,3.4842212 A 0.43574032,0.43574032 0 0 1 3.3560238,3.9199615 0.43574032,0.43574032 0 0 1 3.1477992,4.2910213 V 5.168743 H 2.7120589 V 4.3023688 A 0.43574032,0.43574032 0 0 1 2.4845434,3.9199615 0.43574032,0.43574032 0 0 1 2.9202835,3.4842212 Z"/><path id="path1186" style="fill:#000;fill-opacity:1;stroke-width:.355218;stroke-linecap:square;stroke-linejoin:round;paint-order:fill markers stroke" d="M 2.9270922,1.065666e-6 A 1.4553548,1.4553548 0 0 0 2.0175978,0.32396935 1.4553548,1.4553548 0 0 0 1.4780289,1.4802698 H 1.9421376 A 0.99155366,0.99155366 0 0 1 2.3092262,0.68481686 0.99155366,0.99155366 0 0 1 2.9356028,0.46354249 0.99155366,0.99155366 0 0 1 3.7038218,0.83119836 0.99155366,0.99155366 0 0 1 3.9245289,1.4802698 H 4.3880703 A 1.4553548,1.4553548 0 0 0 4.064102,0.53957007 1.4553548,1.4553548 0 0 0 2.9270922,1.065666e-6 Z"/><rect style="fill:#000;fill-opacity:1;stroke-width:.387567;stroke-linecap:square;stroke-linejoin:round;paint-order:fill markers stroke" id="rect1206" width=".466" height="1.018" x="3.923" y="1.453" ry="0"/></g></svg>